HIERARCHY
ROOT Hips
{
   OFFSET 0.00000 0.00000 0.00000
   CHANNELS 6 Xposition Yposition Zposition Zrotation Xrotation Yrotation
   JOINT RightUpLeg
   {
      OFFSET -8.945800 -8.667070 0.101652
      CHANNELS 3 Zrotation Xrotation Yrotation
      JOINT RightLeg
      {
         OFFSET 0.000000 -44.422697 1.372700
         CHANNELS 3 Zrotation Xrotation Yrotation
         JOINT RightFoot
         {
            OFFSET 0.253549 -42.092399 -1.460590
            CHANNELS 3 Zrotation Xrotation Yrotation
            JOINT RightToes
            {
               OFFSET 0.040000 -4.415090 8.499099
               CHANNELS 3 Zrotation Xrotation Yrotation
               End Site
               {
                  OFFSET -0.080000 -0.137448 9.779790
               }
            }
         }
      }
   }
   JOINT Spine
   {
      OFFSET 0.000000 11.890501 0.000000
      CHANNELS 3 Zrotation Xrotation Yrotation
      JOINT Spine1
      {
         OFFSET 0.000000 25.657401 0.127663
         CHANNELS 3 Zrotation Xrotation Yrotation
         JOINT HEad
         {
            OFFSET 0.000000 8.734161 0.011341
            CHANNELS 3 Zrotation Xrotation Yrotation
            End Site
            {
               OFFSET -0.290000 12.774200 2.513950
            }
         }
         JOINT LeftShoulder1
         {
            OFFSET 8.990000 -0.362252 -0.220000
            CHANNELS 3 Zrotation Xrotation Yrotation
            JOINT LeftArm
            {
               OFFSET 10.282700 -0.003380 0.322123
               CHANNELS 3 Zrotation Xrotation Yrotation
               JOINT LeftForeArm
               {
                  OFFSET 32.766900 0.099144 -1.424340
                  CHANNELS 3 Zrotation Xrotation Yrotation
                  JOINT LeftHand
                  {
                     OFFSET 27.564301 0.085362 1.022160
                     CHANNELS 3 Zrotation Xrotation Yrotation
                     End Site
                     {
                        OFFSET 16.744301 -0.600000 1.502910
                     }
                  }
               }
            }
         }
         JOINT RightShoulder
         {
            OFFSET -8.990000 -0.362252 -0.220000
            CHANNELS 3 Zrotation Xrotation Yrotation
            JOINT RightArm
            {
               OFFSET -10.282700 -0.003380 0.322123
               CHANNELS 3 Zrotation Xrotation Yrotation
               JOINT RightForeArm
               {
                  OFFSET -32.897098 0.099144 -1.424340
                  CHANNELS 3 Zrotation Xrotation Yrotation
                  JOINT RightHand
                  {
                     OFFSET -27.492101 0.085362 1.022160
                     CHANNELS 3 Zrotation Xrotation Yrotation
                     End Site
                     {
                        OFFSET -16.631201 -0.600000 1.502910
                     }
                  }
               }
            }
         }
      }
   }
   JOINT LeftUpLeg
   {
      OFFSET 8.945800 -8.667070 0.101652
      CHANNELS 3 Zrotation Xrotation Yrotation
      JOINT LeftLeg
      {
         OFFSET 0.000000 -44.422697 1.372700
         CHANNELS 3 Zrotation Xrotation Yrotation
         JOINT LeftFoot
         {
            OFFSET -0.253549 -42.092399 -1.460590
            CHANNELS 3 Zrotation Xrotation Yrotation
            JOINT LeftToes
            {
               OFFSET -0.040000 -4.415090 8.499099
               CHANNELS 3 Zrotation Xrotation Yrotation
               End Site
               {
                  OFFSET 0.080000 -0.047448 9.779790
               }
            }
         }
      }
   }
}
MOTION
Frames: 13
Frame Time: 0.016667
-169.467733 105.107706 -387.705187 -1.486178 35.099574 180.784917 -17.452175 25.600319 -14.624374 -5.072148 35.862697 -20.879070 -26.980630 5.893182 52.914285 5.523112 -11.303734 -27.158062 -2.449034 26.592906 16.512199 9.515892 28.959159 -25.861331 5.741096 -2.199098 13.016224 -1.772079 -13.618195 -4.269868 -77.864641 -49.396816 -82.003354 -25.697943 4.131302 -41.815016 -8.383133 2.286447 -25.029628 8.611070 50.824578 42.296913 126.952152 207.334477 215.252387 -11.711405 295.609658 55.557623 1.743621 -10.084184 53.116807 14.456988 6.551746 -118.864580 -13.789014 -18.973121 121.261731 -29.528912 28.554695 34.992767 -21.522537 -11.840427 1.750174
-170.532071 105.344694 -388.627161 -1.413174 33.093534 180.500958 -18.063994 24.000407 -15.210621 -4.468313 34.398431 -18.847767 -26.522596 5.924582 53.155845 5.574553 -10.987534 -26.965560 -3.363217 25.893329 15.482275 9.698177 27.370178 -26.693752 5.373394 -3.318253 12.593609 -1.233176 -13.026661 -4.393874 -74.308722 -53.534036 -78.235883 -22.145982 -4.227450 -43.207746 -9.530675 4.398488 -18.484121 1.946354 49.703922 44.794351 127.074508 208.501319 215.230107 -13.180324 296.033540 55.692027 8.161383 -8.100641 53.548396 14.017098 6.059631 -115.681616 -12.776472 -18.284164 120.009443 -27.275566 28.353273 34.394370 -21.530694 -12.218247 1.816828
-171.575620 105.494917 -389.550394 -1.367985 31.792171 178.856276 -18.995185 22.385255 -15.897579 -5.133215 32.974576 -15.737191 -25.937657 6.012828 53.100285 5.730904 -10.417913 -26.824484 -3.912783 24.706268 14.576160 9.417897 27.287688 -27.164876 4.909135 -4.845247 12.042419 0.571113 -9.196067 -4.177234 -69.305711 -59.377485 -70.833672 -21.856313 -11.773100 -44.157856 -11.867058 6.055597 -7.014085 -7.127410 47.751492 46.442879 127.170199 210.477238 214.652533 -14.538551 294.299901 53.297114 14.089653 -4.435868 51.123529 13.441429 5.318326 -112.496658 -13.812273 -18.383287 119.212810 -23.917425 28.438939 33.488756 -21.678105 -12.171888 2.313489
-172.758634 105.732430 -390.690950 -1.074389 28.095201 175.478871 -20.502876 19.151186 -15.857775 -5.280033 29.671950 -10.868276 -25.731443 5.768360 53.332846 6.012660 -9.442629 -26.379637 -6.345255 22.860464 16.615171 10.035354 26.426571 -25.832153 4.618425 -7.074317 11.253135 2.301866 -5.632080 -5.930367 -58.786017 -65.266829 -57.245209 -24.525696 -22.356478 -45.599313 -23.570899 3.884397 8.572207 -17.791319 47.940159 42.468699 125.241368 217.429537 212.986294 -15.672935 289.232393 48.799362 19.172930 1.307175 40.149747 12.599698 1.856636 -107.720245 -16.226451 -18.848510 119.526740 -19.249357 29.832617 32.169942 -21.866202 -11.808436 3.094734
-173.878972 106.110485 -391.872171 -1.149470 24.225815 168.775860 -23.105220 14.469877 -15.159542 -5.196988 26.845118 -6.097536 -25.825259 5.280261 53.294784 6.247056 -8.629626 -25.972098 -11.736389 19.571035 18.845955 9.666930 25.778806 -24.878110 4.120166 -9.934177 10.764021 2.261900 -2.579784 -9.651085 -38.685949 -74.933855 -34.927818 -28.226313 -35.047664 -44.827628 -32.782951 3.123916 9.655501 -20.272075 45.790217 42.214879 121.004943 210.570552 213.043545 -18.548523 286.722407 45.300704 1.278861 1.980712 55.596504 12.767650 -1.038054 -101.682959 -17.777977 -18.866053 119.265649 -16.516494 31.082760 30.930167 -22.129410 -11.480358 4.463337
-174.904611 106.571043 -393.069376 -2.242001 20.536787 163.483993 -25.800852 10.099788 -15.074777 -3.871460 24.428551 -2.662406 -26.118346 4.651810 53.031395 6.472609 -7.920457 -25.571407 -15.449635 16.955922 20.189098 9.766148 26.535604 -23.383395 1.671711 -12.152985 10.766740 4.131636 0.588635 -11.214514 -11.060068 -75.876141 -7.710639 -33.089190 -43.501878 -42.157741 -33.335213 9.079317 9.728178 -20.190164 43.343916 43.849743 120.065450 205.907814 212.253019 -18.724962 276.661320 42.564240 14.285196 8.661357 32.894703 12.576874 -3.694756 -97.302165 -18.205369 -18.357534 118.580239 -14.678118 32.187809 29.870473 -22.494552 -10.841172 6.289177
-175.872075 107.004889 -394.154428 -3.540042 17.345335 158.616882 -28.213695 6.191468 -15.692850 -1.736998 22.008908 -0.381054 -26.672818 4.273702 52.626573 6.772789 -7.089464 -25.140775 -19.503706 14.135241 17.711072 11.421486 28.123878 -22.682613 0.172917 -15.461846 11.788056 8.031958 2.534652 -10.657401 7.712294 -76.583612 11.782350 -36.558509 -50.575662 -38.789126 -29.882361 14.642930 7.647790 -21.710984 42.035224 47.222883 118.740134 196.477263 209.768128 -17.026289 269.022136 46.146565 -2.804925 6.620603 52.115177 12.091423 -5.924353 -94.743719 -17.408358 -17.488769 117.894065 -13.430498 33.713407 29.028396 -23.017809 -9.571952 8.653622
-176.813295 107.393130 -395.101045 -4.820801 15.321180 155.916758 -30.386245 4.233885 -16.781797 0.814045 19.677848 0.924697 -27.308196 3.631524 51.974881 6.996146 -6.476712 -24.728379 -24.024219 11.665207 14.842302 12.055869 30.142564 -21.436597 0.512787 -21.100490 13.526417 14.730167 3.738691 -12.127739 17.367602 -75.691494 22.923034 -40.045344 -54.516685 -35.944939 -28.120314 20.282645 8.307816 -17.944527 45.325859 45.952225 109.565052 189.203111 207.886916 -15.091149 262.741340 47.299507 3.684668 10.991056 42.565107 10.480143 -8.077120 -94.941487 -16.913669 -16.901114 118.617382 -11.646068 34.600031 27.480457 -23.254397 -8.927672 10.405499
-177.747762 107.735127 -396.058382 -7.559520 12.827577 154.093152 -32.742878 1.988487 -18.309794 3.053965 16.720153 -0.816879 -28.428776 2.624598 50.723853 7.058467 -6.291238 -24.453151 -29.413684 12.305957 9.676254 11.779222 28.521649 -20.292986 -0.333447 -26.017423 16.287447 24.184368 3.780337 -10.615239 21.461329 -75.889767 30.134450 -39.644945 -60.489931 -32.335246 -24.940038 22.941572 5.756052 -24.514901 44.692089 55.068431 108.245097 177.662414 202.689046 -12.986431 254.750565 54.410540 -4.074545 8.203891 53.223296 7.930586 -11.200924 -96.912161 -15.667537 -17.233979 120.438802 -9.837013 35.160349 25.368277 -23.306016 -8.665425 11.862513
-178.951280 107.765606 -396.783174 -3.856747 12.281697 150.908290 -30.781675 2.771868 -18.778516 5.229497 15.340333 -1.391389 -29.247819 2.914556 50.927779 6.930705 -6.242793 -23.342738 -25.056223 19.342165 -0.660397 9.130405 32.147108 -16.416710 -4.343764 -31.308279 20.325157 28.104316 6.692365 -9.962853 21.520676 -74.346589 32.233186 -40.936028 -58.257955 -38.036948 -30.245836 26.693826 7.622318 -32.458012 42.356523 61.385574 106.762598 168.292938 196.704640 -11.598746 244.608636 58.257456 1.484546 10.180125 53.595798 9.480087 -9.731658 -100.890773 -14.587956 -15.985877 123.594554 -7.483917 35.940063 23.675403 -23.229164 -8.788240 13.220617
-180.328405 107.900866 -397.537073 -3.250700 10.707702 148.941878 -30.709439 1.389576 -19.624262 6.225262 14.285007 -1.995041 -29.505762 2.846648 50.789543 6.666048 -6.537367 -22.473972 -20.015791 18.315005 -5.536274 10.277972 35.535569 -14.628508 -8.258743 -35.288025 23.787112 29.798742 8.521137 -13.516889 16.869659 -74.763660 30.846736 -43.066504 -58.376370 -39.014720 -34.052489 28.808642 1.911851 -31.583963 49.010289 57.908967 100.453955 162.216187 192.656933 -9.543019 238.124491 61.060279 -12.184290 8.044213 47.857476 9.174784 -10.687000 -105.192611 -13.135517 -16.343514 127.807647 -5.112914 36.401643 22.124241 -23.122427 -8.966326 14.810678
-181.915757 107.671336 -398.425630 -2.488947 10.015672 143.799442 -30.534695 -0.899623 -20.457094 6.036577 13.301394 -2.254950 -29.110983 2.458864 50.797278 6.251027 -7.179427 -21.505399 -14.779945 15.305674 -12.145390 6.715413 37.341529 -8.832947 -13.061767 -36.014771 26.934994 24.203363 10.400215 -14.512052 9.272693 -77.751656 19.622326 -48.991847 -54.811739 -41.608621 -29.195657 24.783266 12.506684 -38.089796 52.795969 63.997151 104.227000 150.695693 187.598836 -7.597387 228.714909 64.957988 0.192619 12.052269 58.891926 8.916254 -10.754661 -108.773303 -12.062220 -17.345494 132.207081 -2.310303 36.454816 21.324341 -22.985979 -9.200927 16.911345
-183.760774 107.371195 -399.680856 2.543658 7.255271 145.158063 -26.690247 0.848107 -21.743789 7.364845 14.970105 -3.536510 -30.109646 2.550164 50.805232 5.900162 -7.784974 -20.714692 -18.379052 17.956730 -14.600800 5.908720 40.720089 -3.870075 -18.416459 -33.450845 29.542283 23.724116 11.954378 -15.805217 6.144797 -79.567606 0.603891 -51.812429 -47.933865 -48.707988 -33.847081 23.462965 -4.667295 -40.784607 54.600966 68.425614 105.835844 144.662382 183.057006 -3.909612 214.677149 64.700777 -15.637336 6.306535 47.535569 11.890345 -10.236994 -113.209696 -11.041166 -15.782397 135.924507 0.596860 35.381602 20.336485 -22.607767 -9.656641 18.678815
